<svg width="231" height="63" viewBox="0 0 231 63" fill="none" xmlns="http://www.w3.org/2000/svg">
<path d="M230.9 57.9827H200.844V59.7451H230.9V57.9827Z" fill="#403F3F"/>
<path d="M29.0214 57.9834H0.898438V59.7458H29.0214V57.9834Z" fill="#403F3F"/>
<path d="M43.7329 62.5359H36.6953V53.1201H43.7329V54.8413H38.4554V57.0072H43.5465V58.6625H38.4554V60.7873H43.7329V62.5359Z" fill="#403F3F"/>
<path d="M53.0413 53.1072H54.815V62.5367H53.7129V62.5504L48.7699 56.19V62.5395H46.9961V53.1236H48.4327L53.0385 58.9598V53.1099L53.0413 53.1072Z" fill="#403F3F"/>
<path d="M64.936 62.5359H57.8984V53.1201H64.936V54.8413H59.6558V57.0072H64.7469V58.6625H59.6558V60.7873H64.936V62.5359Z" fill="#403F3F"/>
<path d="M76.123 62.5367H74.0148L71.2759 59.3908H69.5707V62.5367H67.7969V53.1072C69.2883 53.1072 70.7797 53.1209 72.2711 53.1209C74.4863 53.1346 75.6569 54.6143 75.6569 56.2421C75.6569 57.5323 75.0648 58.839 73.28 59.2014L76.1285 62.4159V62.5367H76.123ZM69.5679 54.7762V57.7876H72.2684C73.3979 57.7876 73.8804 57.0355 73.8804 56.2805C73.8804 55.5256 73.3842 54.7735 72.2684 54.7735H69.5679V54.7762Z" fill="#403F3F"/>
<path d="M85.3103 55.4222C84.6798 54.8156 83.7394 54.4806 82.9197 54.4806C80.9046 54.4806 79.6819 56.0152 79.6819 57.9505C79.6819 59.496 80.5811 61.0992 82.9197 61.0992C83.6572 61.0992 84.3042 60.9372 85.0417 60.347V58.678H82.6373V57.0913H86.6674V61.058C85.7408 62.1204 84.5728 62.7517 82.9197 62.7517C79.3858 62.7517 77.9492 60.4239 77.9492 57.9505C77.9492 55.3014 79.6024 52.8528 82.9197 52.8528C84.1835 52.8528 85.4447 53.3359 86.4124 54.2912L85.3103 55.4222Z" fill="#403F3F"/>
<path d="M92.9938 57.0072L95.4914 53.1201H97.6271V53.1997L93.8794 58.6461V62.5332H92.1056V58.6461L88.4922 53.1997V53.1201H90.6005L92.9911 57.0072H92.9938Z" fill="#403F3F"/>
<path d="M106.715 62.5359V53.1201H108.475V62.5359H106.715Z" fill="#403F3F"/>
<path d="M117.803 53.1072H119.577V62.5367H118.475V62.5504L113.532 56.19V62.5395H111.758V53.1236H113.194L117.803 58.9598V53.1099V53.1072Z" fill="#403F3F"/>
<path d="M137.158 61.3539C136.19 62.3092 134.943 62.7539 133.586 62.7539C130.093 62.7539 128.615 60.3464 128.602 57.8978C128.588 55.4354 130.186 52.9346 133.586 52.9346C134.861 52.9346 136.07 53.4177 137.037 54.373L135.856 55.515C135.239 54.9111 134.406 54.6283 133.586 54.6283C131.316 54.6283 130.334 56.3221 130.348 57.8978C130.362 59.457 131.261 61.0849 133.586 61.0849C134.406 61.0849 135.332 60.75 135.949 60.1296L137.158 61.3539Z" fill="#403F3F"/>
<path d="M145.893 60.7598H140.978L140.172 62.5359H138.25L142.467 53.1201H144.402L148.619 62.5359H146.683L145.891 60.7598H145.893ZM143.434 55.0966L141.688 59.1045H145.181L143.434 55.0966Z" fill="#403F3F"/>
<path d="M155.191 59.7669H152.532V62.5367H150.758V53.1209C152.236 53.1209 153.713 53.1072 155.191 53.1072C159.786 53.1072 159.799 59.7641 155.191 59.7641V59.7669ZM152.532 58.139H155.191C157.461 58.139 157.447 54.8037 155.191 54.8037H152.532V58.139Z" fill="#403F3F"/>
<path d="M161.328 62.5359V53.1201H163.088V62.5359H161.328Z" fill="#403F3F"/>
<path d="M169.092 54.7343H166.109V53.1201H173.846V54.7343H170.863V62.5359H169.089V54.7343H169.092Z" fill="#403F3F"/>
<path d="M183.081 60.7598H178.165L177.359 62.5359H175.438L179.654 53.1201H181.59L185.806 62.5359H183.873L183.081 60.7598ZM180.622 55.0966L178.875 59.1045H182.368L180.622 55.0966Z" fill="#403F3F"/>
<path d="M189.996 53.1201V60.8943H194.833V62.5359H188.223V53.1201H189.996Z" fill="#403F3F"/>
<path d="M29.0214 44.8223V37.8359H7.92781V25.7765H28.2702V19.1663H0.898438V44.8223H29.0214Z" fill="#403F3F"/>
<path d="M29.0214 0.447754H0.898438V7.32705H29.0214V0.447754Z" fill="#1975BB"/>
<path d="M60.8458 7.14825H67.93V44.8197H63.5298V44.8746L43.7795 19.4547V44.8197H36.6953V7.20041H42.4389L60.8485 30.523V7.14551L60.8458 7.14825Z" fill="#403F3F"/>
<path d="M92.2424 0.447754H75.7656V3.13524H92.2424C104.747 3.13524 104.747 22.428 92.2424 22.428H75.7656V44.8228H78.6635V25.0606H92.2424C108.557 25.0606 108.557 0.447754 92.2424 0.447754Z" fill="#1975BB"/>
<path d="M153.773 44.8226V7.20337H156.619V44.8226H153.773Z" fill="#1975BB"/>
<path d="M143.469 27.4377C142.896 35.4069 137.5 42.7803 127.368 42.7803C117.235 42.7803 111.941 35.4069 111.327 27.4377H108.473C109.07 36.8288 115.381 45.4678 127.368 45.4678C139.354 45.4678 145.659 36.8151 146.262 27.4377H143.469Z" fill="#1975BB"/>
<path d="M127.372 9.29784C137.568 9.29784 142.919 16.4516 143.476 24.5882H146.275C145.735 15.0242 139.421 6.61035 127.372 6.61035C115.323 6.61035 109.014 15.0352 108.469 24.5882H111.312C111.813 16.3226 117.165 9.29784 127.372 9.29784Z" fill="#403F3F"/>
<path d="M166.704 7.20337L191.984 38.3194V7.20337H194.829V44.8226H193.703L168.37 13.7615V44.8226H165.473V7.20337H166.706H166.704Z" fill="#1975BB"/>
<path d="M200.844 7.25781V9.83549H214.423V44.8222H217.321V7.25781H200.844Z" fill="#1975BB"/>
<path d="M230.902 7.25781H219.848V9.83824H230.902V7.25781Z" fill="#403F3F"/>
</svg>
